<?xml version="1.0" encoding="utf-8"?>
<!-- Generator: Adobe Illustrator 24.3.0, SVG Export Plug-In . SVG Version: 6.00 Build 0)  -->
<svg version="1.1" id="Capa_1" xmlns="http://www.w3.org/2000/svg" xmlns:xlink="http://www.w3.org/1999/xlink" x="0px" y="0px"
	 width="20px" height="18px" viewBox="0 0 20 18" style="enable-background:new 0 0 20 18;" xml:space="preserve">
<style type="text/css">
	.st0{fill:#34A853;}
</style>
<path class="st0" d="M17.6,4.2l-7.2-4.1C10.1,0,9.9,0,9.6,0.1L2.4,4.2C2.2,4.3,2,4.5,2,4.9V13c0,0.3,0.2,0.5,0.4,0.7l7.2,4.1
	c0.3,0.2,0.5,0.2,0.8,0l7.2-4.1c0.3-0.2,0.4-0.4,0.4-0.7V4.9C18,4.5,17.8,4.3,17.6,4.2z M16.6,12.2l-2.5-1.4V7l-3.7,2.1v4.2l3.3-1.9
	l2.5,1.4L10,16.3l-6.3-3.5l2.5-1.4l3.3,1.9V9.1L5.9,7v3.8l-2.5,1.4V5.2l6.2-3.5v2.9L6.3,6.3L10,8.4l3.7-2.1l-3.2-1.8V1.7l6.2,3.5
	V12.2z"/>
</svg>
