<?xml version="1.0" encoding="utf-8"?>
<!-- Generator: Adobe Illustrator 24.1.3, SVG Export Plug-In . SVG Version: 6.00 Build 0)  -->
<svg version="1.1" id="Capa_1" xmlns="http://www.w3.org/2000/svg" xmlns:xlink="http://www.w3.org/1999/xlink" x="0px" y="0px"
	 width="20px" height="18px" viewBox="0 0 20 18" style="enable-background:new 0 0 20 18;" xml:space="preserve">
<style type="text/css">
	.st0{fill:#FBBC05;}
</style>
<g>
	<g>
		<g>
			<path class="st0" d="M14.5,11.8l0.9-1.5h3.4l0.9-1.5l-2.3-3.9h-3.5l-1-1.8h-1V1.8h1.7l1,1.8h2.1L14.6,0h-4.3v5.2h1.8l0.7,1.2
				h-2.5v2.4h2.3l1-1.8h2.8l0.7,1.2h-2.8l-1,1.8h-3v4.6h3.8l-0.7,1.2h-3.1v1.8h4.3l3.5-6.1h-2L15.2,13h-3.4v-1.2H14.5z M5.1,11.8
				l-0.9-1.5H0.9L0,8.8l2.3-3.9h3.5l1-1.8h1V1.8H6.1l-1,1.8H3L5.1,0h4.3v5.2H7.5L6.8,6.4h2.5v2.4H7L6,7H3.2L2.5,8.2h2.8l1,1.8h3v4.6
				H5.6l0.7,1.2h3.1v1.8H5.1l-3.5-6.1h2L4.4,13h3.4v-1.2H5.1z"/>
		</g>
	</g>
</g>
</svg>
