<svg xmlns="http://www.w3.org/2000/svg" width="20" height="22" viewBox="0 0 20 22">
    <defs>
        <filter id="6j8wxg8daa">
            <feColorMatrix in="SourceGraphic" values="0 0 0 0 0.235294 0 0 0 0 0.729412 0 0 0 0 0.329412 0 0 0 1.000000 0"/>
        </filter>
    </defs>
    <g fill="none" fill-rule="evenodd">
        <g filter="url(#6j8wxg8daa)" transform="translate(-930 -467)">
            <g>
                <path fill="#FFF" fill-rule="nonzero" d="M18.831 5.323L10.267.468c-.303-.17-.675-.17-.978 0L.724 5.323c-.302.17-.489.487-.489.83v9.698c0 .341.187.656.49.826l8.564 4.855c.302.17.675.17.978 0l8.564-4.855c.304-.17.49-.487.49-.83V6.153c0-.343-.187-.66-.49-.83zm-1.166 9.598l-2.991-1.693V8.772l-4.418 2.483v5.014l3.94-2.228 2.991 1.693-7.41 4.19-7.409-4.19L5.36 14.04l3.94 2.228v-5L4.882 8.787v4.442L1.89 14.921V6.54L9.3 2.349v3.382L5.36 7.963l4.418 2.483 4.418-2.483-3.94-2.232V2.349l7.41 4.19v8.382z" transform="translate(930 467)"/>
            </g>
        </g>
    </g>
</svg>
