<svg xmlns="http://www.w3.org/2000/svg" width="20" height="18" viewBox="0 0 20 18">
    <g fill="none" fill-rule="evenodd">
        <g fill="#4285F4" fill-rule="nonzero">
            <g>
                <path d="M14.535 11.83L15.412 10.314 18.793 10.314 19.664 8.797 17.398 4.854 13.874 4.854 12.852 3.033 11.852 3.033 11.852 1.82 13.555 1.82 14.574 3.64 16.701 3.64 14.61 0 10.349 0 10.349 5.157 12.158 5.157 12.858 6.37 10.349 6.37 10.349 8.797 12.633 8.797 13.673 6.977 16.473 6.977 17.167 8.19 14.367 8.19 13.324 10.01 10.349 10.01 10.349 14.561 14.102 14.561 13.408 15.774 10.349 15.774 10.349 17.594 14.61 17.594 18.095 11.527 16.103 11.527 15.223 13.044 11.852 13.044 11.852 11.83zM5.129 11.83L4.252 10.314.871 10.314 0 8.797 2.266 4.854 5.79 4.854 6.812 3.033 7.812 3.033 7.812 1.82 6.108 1.82 5.09 3.64 2.963 3.64 5.054 0 9.314 0 9.314 5.157 7.506 5.157 6.806 6.37 9.314 6.37 9.314 8.797 7.031 8.797 5.991 6.977 3.191 6.977 2.494 8.19 5.297 8.19 6.34 10.01 9.314 10.01 9.314 14.561 5.562 14.561 6.256 15.774 9.314 15.774 9.314 17.594 5.054 17.594 1.568 11.527 3.561 11.527 4.441 13.044 7.812 13.044 7.812 11.83z" transform="translate(-773 -469) translate(773 469)"/>
            </g>
        </g>
    </g>
</svg>
