<?xml version="1.0" encoding="utf-8"?>
<!-- Generator: Adobe Illustrator 24.1.3, SVG Export Plug-In . SVG Version: 6.00 Build 0)  -->
<svg version="1.1" id="Capa_1" xmlns="http://www.w3.org/2000/svg" xmlns:xlink="http://www.w3.org/1999/xlink" x="0px" y="0px"
	 width="20px" height="20px" viewBox="0 0 20 20" style="enable-background:new 0 0 20 20;" xml:space="preserve">
<style type="text/css">
	.st0{fill-rule:evenodd;clip-rule:evenodd;fill:#FBBC05;}
</style>
<path id="o2d5fzhp6a_2_" class="st0" d="M10,3.1C5.4,3.1,1.5,6-0.1,10c1.6,4,5.5,6.9,10.1,6.9c4.6,0,8.5-2.9,10.1-6.9
	C18.5,6,14.6,3.1,10,3.1z M10,14.6c-2.5,0-4.6-2.1-4.6-4.6S7.5,5.4,10,5.4s4.6,2.1,4.6,4.6S12.5,14.6,10,14.6z M10,7.3
	c-1.5,0-2.8,1.2-2.8,2.8s1.2,2.8,2.8,2.8c1.5,0,2.8-1.2,2.8-2.8S11.5,7.3,10,7.3z"/>
</svg>
