<?xml version="1.0" encoding="utf-8"?>
<!-- Generator: Adobe Illustrator 24.1.3, SVG Export Plug-In . SVG Version: 6.00 Build 0)  -->
<svg version="1.1" id="Capa_1" xmlns="http://www.w3.org/2000/svg" xmlns:xlink="http://www.w3.org/1999/xlink" x="0px" y="0px"
	 width="24px" height="24px" viewBox="0 0 24 24" style="enable-background:new 0 0 24 24;" xml:space="preserve">
<style type="text/css">
	.st0{fill-rule:evenodd;clip-rule:evenodd;fill:#3CBA54;}
</style>
<path id="ruzrbsp0ya_2_" class="st0" d="M21,7h-3.2L16,5h-6v2h5.1l1.8,2h4v12h-16v-9h-2v9c0,1.1,0.9,2,2,2h16c1.1,0,2-0.9,2-2V9
	C23,7.9,22.1,7,21,7z M8,15c0,2.8,2.2,5,5,5s5-2.2,5-5s-2.2-5-5-5S8,12.2,8,15z M13,12c1.6,0,3,1.4,3,3s-1.4,3-3,3s-3-1.4-3-3
	S11.4,12,13,12z M5,7h3V5H5V2H3v3H0v2h3v3h2V7z"/>
</svg>
