<svg xmlns="http://www.w3.org/2000/svg" xmlns:xlink="http://www.w3.org/1999/xlink" width="174" height="30" viewBox="0 0 174 30">
    <defs>
        <path id="of5o726j7a" d="M0.251 0.085L26.944 0.085 26.944 26.777 0.251 26.777z"/>
        <path id="r96y1b5p2c" d="M0 0.109L16.678 0.109 16.678 17.245 0 17.245z"/>
    </defs>
    <g fill="none" fill-rule="evenodd">
        <g>
            <g>
                <g transform="translate(-990 -264) translate(990.449 264) translate(.762 .107)">
                    <mask id="kj7cwt12yb" fill="#fff">
                        <use xlink:href="#of5o726j7a"/>
                    </mask>
                    <g mask="url(#kj7cwt12yb)">
                        <g>
                            <path fill="#EA4335" d="M16.523 5.723l.819.014 2.226-2.226.107-.943C17.907.994 15.58.037 13.031.037c-4.613 0-8.506 3.138-9.658 7.39.243-.17.763-.043.763-.043l4.449-.731s.229-.379.344-.356c1.017-1.113 2.48-1.814 4.105-1.814 1.32.003 2.534.469 3.489 1.24z" transform="translate(.565 2.825)"/>
                            <path fill="#4285F4" d="M22.695 7.435c-.517-1.907-1.582-3.59-3.02-4.867L16.523 5.72c1.262 1.02 2.073 2.58 2.073 4.325v.557c1.534 0 2.78 1.248 2.78 2.78 0 1.533-1.249 2.78-2.78 2.78h-5.56l-.556.558v3.337l.557.553h5.56c3.985 0 7.228-3.243 7.228-7.229-.003-2.46-1.243-4.64-3.13-5.946z" transform="translate(.565 2.825)"/>
                            <path fill="#34A853" d="M7.472 20.613h5.556v-4.45H7.472c-.41 0-.797-.09-1.144-.248l-.803.246L3.3 18.387l-.194.752c1.214.923 2.728 1.474 4.367 1.474z" transform="translate(.565 2.825)"/>
                            <path fill="#FBBC05" d="M7.472 6.155c-3.986 0-7.23 3.243-7.23 7.23 0 2.347 1.125 4.434 2.865 5.756l3.224-3.223c-.967-.438-1.639-1.407-1.639-2.534 0-1.534 1.249-2.78 2.78-2.78 1.127 0 2.096.676 2.534 1.639l3.223-3.223c-1.322-1.74-3.41-2.865-5.757-2.865z" transform="translate(.565 2.825)"/>
                        </g>
                    </g>
                </g>
                <g transform="translate(-990 -264) translate(990.449 264) translate(37.653 4.194)">
                    <mask id="5n6v3twvod" fill="#fff">
                        <use xlink:href="#r96y1b5p2c"/>
                    </mask>
                    <path fill="#5F6368" d="M4.261 16.123c-1.314-.749-2.352-1.776-3.116-3.082C.382 11.735 0 10.281 0 8.677s.382-3.058 1.145-4.364C1.91 3.007 2.947 1.98 4.261 1.23 5.575.483 7.011.11 8.568.11c1.237 0 2.39.221 3.46.664 1.068.443 1.962 1.062 2.68 1.856L12.92 4.416c-.535-.596-1.168-1.054-1.902-1.375-.733-.32-1.55-.48-2.45-.48-1.07 0-2.063.251-2.98.755-.915.504-1.645 1.222-2.187 2.154-.542.931-.813 2-.813 3.207 0 1.207.275 2.276.824 3.207.55.932 1.283 1.65 2.2 2.154.916.504 1.909.756 2.978.756.962 0 1.772-.145 2.428-.435.657-.29 1.245-.68 1.764-1.169.336-.32.623-.737.86-1.248.236-.512.4-1.066.492-1.661h-5.59V7.99h7.996c.091.52.137.962.137 1.328 0 1.04-.164 2.036-.492 2.99-.33.955-.837 1.784-1.524 2.486-1.558 1.634-3.59 2.451-6.094 2.451-1.558 0-2.993-.374-4.307-1.122" mask="url(#5n6v3twvod)"/>
                </g>
                <path fill="#5F6368" d="M62.988 18.667c.52-.305.94-.74 1.26-1.305.321-.565.481-1.222.481-1.97 0-.764-.16-1.429-.48-1.994-.321-.565-.742-.997-1.26-1.294-.52-.298-1.085-.447-1.696-.447-.596 0-1.157.149-1.684.447-.527.297-.947.73-1.26 1.294-.313.565-.47 1.23-.47 1.993 0 .749.16 1.406.482 1.97.32.566.74 1 1.26 1.306.519.306 1.076.458 1.672.458.61 0 1.176-.152 1.695-.458m-4.742 1.982c-.901-.527-1.608-1.249-2.12-2.165-.511-.916-.767-1.947-.767-3.093 0-1.145.256-2.176.768-3.093.511-.916 1.218-1.638 2.119-2.165.901-.526 1.917-.79 3.047-.79 1.145 0 2.169.264 3.07.79.9.527 1.604 1.249 2.108 2.165.504.917.756 1.948.756 3.093 0 1.146-.252 2.177-.756 3.093-.504.916-1.207 1.638-2.108 2.165-.901.527-1.925.79-3.07.79-1.13 0-2.146-.263-3.047-.79M75.57 18.667c.52-.305.94-.74 1.26-1.305.321-.565.481-1.222.481-1.97 0-.764-.16-1.429-.48-1.994-.321-.565-.742-.997-1.26-1.294-.52-.298-1.085-.447-1.696-.447-.596 0-1.157.149-1.684.447-.527.297-.947.73-1.26 1.294-.313.565-.47 1.23-.47 1.993 0 .749.16 1.406.481 1.97.321.566.741 1 1.26 1.306.52.306 1.077.458 1.673.458.61 0 1.176-.152 1.695-.458m-4.742 1.982c-.901-.527-1.608-1.249-2.12-2.165-.511-.916-.767-1.947-.767-3.093 0-1.145.256-2.176.768-3.093.511-.916 1.218-1.638 2.119-2.165.9-.526 1.916-.79 3.047-.79 1.145 0 2.168.264 3.07.79.9.527 1.603 1.249 2.107 2.165.504.917.756 1.948.756 3.093 0 1.146-.252 2.177-.756 3.093-.504.916-1.206 1.638-2.107 2.165-.902.527-1.925.79-3.07.79-1.13 0-2.146-.263-3.047-.79M88.074 18.704c.504-.297.909-.73 1.214-1.3.306-.57.459-1.236.459-2 0-.781-.153-1.456-.459-2.026-.305-.57-.71-1.003-1.214-1.299-.504-.296-1.054-.445-1.65-.445-.595 0-1.145.152-1.649.456-.504.305-.909.742-1.214 1.311-.306.57-.458 1.237-.458 2.002 0 .765.152 1.432.458 2.001.305.57.71 1.003 1.214 1.3.504.296 1.054.444 1.65.444.595 0 1.145-.148 1.65-.444m-5.236 6.687c-.924-.664-1.546-1.44-1.867-2.325l2.383-.985c.229.626.61 1.122 1.145 1.489s1.153.55 1.856.55c1.054 0 1.882-.303 2.486-.908.603-.606.905-1.456.905-2.552v-.985h-.138c-.366.535-.867.962-1.5 1.283-.634.32-1.356.481-2.165.481-.948 0-1.83-.255-2.646-.766-.818-.51-1.475-1.226-1.97-2.147-.497-.921-.745-1.962-.745-3.123 0-1.16.248-2.202.744-3.123.496-.92 1.153-1.64 1.97-2.16.817-.517 1.7-.777 2.647-.777.809 0 1.53.16 2.165.481.633.321 1.134.749 1.5 1.283h.138V9.71h2.405V20.43c0 1.253-.248 2.33-.744 3.23-.497.902-1.184 1.581-2.062 2.04-.879.458-1.875.687-2.99.687-1.42 0-2.593-.332-3.517-.997M94.161 21.073L96.681 21.073 96.681 4.67 94.161 4.67zM106.853 13.994c-.03-.367-.153-.74-.367-1.123-.214-.381-.546-.706-.996-.974-.45-.267-1.012-.4-1.684-.4-.748 0-1.394.229-1.936.687-.542.458-.913 1.062-1.111 1.81h6.094zm-5.9 6.666c-.893-.519-1.591-1.24-2.095-2.164-.504-.924-.756-1.96-.756-3.105 0-1.1.24-2.11.721-3.035.481-.924 1.157-1.657 2.028-2.2.87-.542 1.863-.813 2.978-.813 1.145 0 2.142.252 2.99.756.847.504 1.492 1.203 1.935 2.096.443.894.665 1.921.665 3.082 0 .137-.008.275-.023.412-.015.137-.023.214-.023.23h-8.751c.076 1.038.45 1.84 1.122 2.405.672.565 1.436.847 2.291.847 1.313 0 2.321-.61 3.024-1.832l2.154 1.03c-.504.932-1.203 1.677-2.097 2.234-.893.557-1.943.836-3.15.836-1.115 0-2.119-.26-3.012-.779zM119.304 20.317c-1.306-.748-2.333-1.776-3.081-3.082-.749-1.305-1.123-2.76-1.123-4.364 0-1.603.374-3.058 1.123-4.364.748-1.306 1.775-2.333 3.081-3.081 1.306-.749 2.753-1.123 4.341-1.123 2.46 0 4.483.893 6.072 2.68l-1.81 1.764c-.566-.671-1.196-1.172-1.89-1.5-.696-.328-1.486-.493-2.372-.493-1.1 0-2.104.252-3.012.756-.909.504-1.627 1.218-2.154 2.142-.527.925-.79 1.997-.79 3.22 0 1.221.263 2.294.79 3.218.527.924 1.245 1.638 2.154 2.142.908.504 1.913.756 3.012.756 1.833 0 3.391-.764 4.674-2.29l1.856 1.786c-.78.932-1.73 1.657-2.853 2.176-1.122.52-2.348.78-3.677.78-1.588 0-3.035-.375-4.34-1.123M131.343 21.073L133.863 21.073 133.863 4.67 131.343 4.67zM142.912 18.667c.52-.305.94-.74 1.26-1.305.32-.565.481-1.222.481-1.97 0-.764-.16-1.429-.48-1.994-.322-.565-.742-.997-1.26-1.294-.52-.298-1.086-.447-1.696-.447-.596 0-1.157.149-1.684.447-.527.297-.947.73-1.26 1.294-.313.565-.47 1.23-.47 1.993 0 .749.16 1.406.481 1.97.321.566.741 1 1.26 1.306.52.306 1.077.458 1.673.458.61 0 1.176-.152 1.695-.458m-4.742 1.982c-.902-.527-1.608-1.249-2.12-2.165-.511-.916-.767-1.947-.767-3.093 0-1.145.256-2.176.768-3.093.511-.916 1.217-1.638 2.119-2.165.9-.526 1.916-.79 3.047-.79 1.145 0 2.168.264 3.07.79.9.527 1.603 1.249 2.107 2.165.504.917.756 1.948.756 3.093 0 1.146-.252 2.177-.756 3.093-.504.916-1.206 1.638-2.107 2.165-.902.527-1.925.79-3.07.79-1.13 0-2.146-.263-3.047-.79M149.52 20.19c-.726-.832-1.089-1.98-1.089-3.447V9.71h2.52v6.69c0 1.817.817 2.725 2.451 2.725.856 0 1.547-.332 2.074-.996.527-.665.79-1.462.79-2.394V9.71h2.52v11.363h-2.405V19.56h-.115c-.336.55-.829 1-1.478 1.351s-1.34.527-2.073.527c-1.405 0-2.47-.416-3.196-1.248M167.741 18.667c.512-.305.92-.74 1.226-1.305.305-.565.458-1.222.458-1.97 0-.749-.153-1.406-.458-1.971-.306-.565-.714-1-1.226-1.306-.512-.305-1.065-.458-1.66-.458-.596 0-1.15.153-1.662.458-.512.306-.924.745-1.237 1.317-.313.573-.47 1.226-.47 1.96 0 .732.157 1.385.47 1.958.313.573.725 1.012 1.237 1.317.512.306 1.066.458 1.661.458.596 0 1.15-.152 1.661-.458m-4.834 1.993c-.832-.519-1.493-1.24-1.981-2.164-.49-.924-.733-1.96-.733-3.105s.244-2.18.733-3.104c.488-.924 1.149-1.646 1.981-2.165.833-.52 1.738-.779 2.715-.779.825 0 1.562.176 2.21.527.65.352 1.142.787 1.479 1.306h.114l-.114-1.58V4.67h2.52v16.403h-2.406v-1.49h-.114c-.337.535-.825.978-1.467 1.33-.641.35-1.382.526-2.222.526-.977 0-1.882-.26-2.715-.779" transform="translate(-990 -264) translate(990.449 264)"/>
            </g>
        </g>
    </g>
</svg>
