<svg id="Lager_1" xmlns="http://www.w3.org/2000/svg" viewBox="0 0 697.8 283.4"><style>.st0{fill:#0058a3}.st1{fill:#ffdb00}</style><title>IKEA_2018_sRGB</title><path class="st0" d="M697.7 283.4H0V0h697.8l-.1 283.4z"/><path class="st1" d="M13.6 141.7c0 68.5 140.5 125.4 335.3 125.4s335.2-56.8 335.2-125.4S543.6 16.3 348.8 16.3 13.6 73.2 13.6 141.7z"/><path class="st0" d="M329.1 181.9c2.2 3.2 4.6 6.2 7.4 8.9H261c0-3-2.8-9.1-6.1-13.9s-20.5-31.1-20.5-31.1v36.1c0 3 0 5.9 1.5 8.9H173c1.5-3 1.5-5.9 1.5-8.9V96.1c0-3 0-5.9-1.5-8.9h62.9c-1.5 3-1.5 5.9-1.5 8.9v37.4s20.1-26.1 24.7-32.3c3.5-4.6 7.8-11.1 7.8-14.1h65.6c-4.5 3-9.5 8.4-13.6 13.4-3.6 4.4-24 29.3-24 29.3s30.2 46.2 34.2 52.1zm19.7-85.8v85.8c0 3 0 5.9-1.5 8.9h121.4v-28.7c-3 1.5-5.9 1.5-8.9 1.5h-51.1V150h49.1v-21.8h-49.1v-13.6h51.1c3 0 5.9 0 8.9 1.4V87.3H347.4c1.4 2.9 1.4 5.8 1.4 8.8zM637 181.9c1 3.3 2.7 6.3 4.9 8.9h-65.8c.3-3-.8-5.9-2-8.9 0 0-1-2.4-2.4-5.9l-.6-1.5h-37.9l-.6 1.5s-1.1 2.9-2.1 5.9-2.1 5.9-1.7 8.9h-51.9c2.1-2.6 3.7-5.6 4.7-8.9 1.7-4.7 28.7-79.1 31.1-85.8 1.1-3 2.2-5.9 1.8-8.9h87.7c-.8 3 .8 5.9 1.9 8.9 2.6 6.6 30.7 80 32.9 85.8zm-74.2-29.3c-4.8-12.5-8.7-22.9-9.2-24-.8-2.2-1.5-4.5-2-6.8-.4 2.3-1.1 4.6-1.8 6.8-.3 1-4.2 11.5-8.7 24h21.7zM143.2 87.2H74.8c1.5 3 1.5 5.9 1.5 8.9v85.8c0 3 0 5.9-1.5 8.9h68.4c-1.5-3-1.5-5.9-1.5-8.9V96.1c0-3 0-6 1.5-8.9zM616 95.4c-.3-7.3 5.4-13.4 12.7-13.6h.9c7.4-.1 13.5 5.8 13.6 13.1v.5c.2 7.5-5.7 13.8-13.3 14-7.5.2-13.8-5.7-14-13.3.1-.2.1-.5.1-.7zm2.7 0c0 6 4.8 10.9 10.9 11 6 0 10.9-4.8 11-10.9 0-6-4.8-10.9-10.9-11-5.8-.2-10.7 4.3-10.9 10.1-.1.3-.1.5-.1.8zm8.2 8.1h-2.4V87.2h6.1c2.9.1 5.1 2.4 5.1 5.3 0 2-1.1 3.8-2.9 4.8l3.5 6.3h-2.7l-3.2-5.8h-3.5v5.7zm0-8.1h3.3c1.6.1 3-1.1 3-2.7.1-1.6-1.1-3-2.7-3H626.9v5.7z"/></svg>