<?xml version="1.0" encoding="utf-8"?>
<!-- Generator: Adobe Illustrator 24.1.3, SVG Export Plug-In . SVG Version: 6.00 Build 0)  -->
<svg version="1.1" id="Layer_1" xmlns="http://www.w3.org/2000/svg" xmlns:xlink="http://www.w3.org/1999/xlink" x="0px" y="0px"
	 width="72px" height="72px" viewBox="0 0 72 72" style="enable-background:new 0 0 72 72;" xml:space="preserve">
<style type="text/css">
	.st0{fill:#4285F4;}
</style>
<g id="art">
	<g>
		<path class="st0" d="M56.8,22.3H15.4c-0.7,0-1.2,0.5-1.3,1.2l0,0V32c0,0.7,0.5,1.2,1.2,1.2h41.5c0.7,0,1.2-0.5,1.2-1.2v-8.6
			C58,22.8,57.5,22.3,56.8,22.3 M50.4,30.3c-1.4,0-2.5-1.1-2.5-2.5s1.1-2.5,2.5-2.5s2.5,1.1,2.5,2.5S51.8,30.3,50.4,30.3L50.4,30.3"
			/>
		<path class="st0" d="M56.8,38.7H15.4c-0.7,0-1.2,0.5-1.3,1.2v0.1v8.6c0,0.7,0.5,1.2,1.2,1.2h41.5c0.7,0,1.2-0.5,1.2-1.2v-8.6
			C58,39.3,57.5,38.7,56.8,38.7 M50.4,46.7c-1.4,0-2.5-1.1-2.5-2.5s1.1-2.5,2.5-2.5s2.5,1.1,2.5,2.5S51.8,46.7,50.4,46.7L50.4,46.7"
			/>
	</g>
</g>
</svg>
