<?xml version="1.0" encoding="utf-8"?>
<!-- Generator: Adobe Illustrator 24.1.3, SVG Export Plug-In . SVG Version: 6.00 Build 0)  -->
<svg version="1.1" id="Layer_1" xmlns="http://www.w3.org/2000/svg" xmlns:xlink="http://www.w3.org/1999/xlink" x="0px" y="0px"
	 width="72px" height="72px" viewBox="0 0 72 72" style="enable-background:new 0 0 72 72;" xml:space="preserve">
<style type="text/css">
	.st0{fill:#4285F4;}
</style>
<g>
	<polygon class="st0" points="36,2 25,13 25,21.3 36,10.3 47,21.3 47,13 	"/>
	<polygon class="st0" points="36,70 25,59 25,50.7 36,61.7 47,50.7 47,59 	"/>
	<polygon class="st0" points="2,36 13,47 21.3,47 10.3,36 21.3,25 13,25 	"/>
	<polygon class="st0" points="70,36 59,47 50.7,47 61.7,36 50.7,25 59,25 	"/>
	<path class="st0" d="M26,25h20c0.6,0,1,0.4,1,1v20c0,0.6-0.4,1-1,1H26c-0.6,0-1-0.4-1-1V26C25,25.4,25.4,25,26,25z"/>
</g>
</svg>
