<?xml version="1.0" encoding="utf-8"?>
<!-- Generator: Adobe Illustrator 24.1.3, SVG Export Plug-In . SVG Version: 6.00 Build 0)  -->
<svg version="1.1" id="Layer_1" xmlns="http://www.w3.org/2000/svg" xmlns:xlink="http://www.w3.org/1999/xlink" x="0px" y="0px"
	 width="72px" height="72px" viewBox="0 0 72 72" style="enable-background:new 0 0 72 72;" xml:space="preserve">
<style type="text/css">
	.st0{fill:#4285F4;}
</style>
<g id="art">
	<g>
		<polygon class="st0" points="28,28.6 36,33.3 44,28.6 44,19.5 36,14.8 28,19.5 		"/>
		<polygon class="st0" points="39,47.6 47,52.2 55,47.6 55,38.3 47,33.7 39,38.3 		"/>
		<polygon class="st0" points="17,47.8 25,52.5 33,47.8 33,38.6 25,34 17,38.6 		"/>
	</g>
	<polygon class="st0" points="18,16.5 10,21.1 10,51 18,55.7 18,62.7 4,54.7 4,17.5 18,9.4 	"/>
	<polygon class="st0" points="54,16.5 62,21.1 62,51 54,55.7 54,62.7 68,54.7 68,17.5 54,9.4 	"/>
</g>
</svg>
