<?xml version="1.0" encoding="utf-8"?>
<!-- Generator: Adobe Illustrator 24.1.3, SVG Export Plug-In . SVG Version: 6.00 Build 0)  -->
<svg version="1.1" id="Layer_1" xmlns="http://www.w3.org/2000/svg" xmlns:xlink="http://www.w3.org/1999/xlink" x="0px" y="0px"
	 width="72px" height="72px" viewBox="0 0 72 72" style="enable-background:new 0 0 72 72;" xml:space="preserve">
<style type="text/css">
	.st0{fill:#4285F4;}
</style>
<g>
	<path class="st0" d="M41.7,29.1H30.3c-0.7,0-1.2,0.5-1.2,1.2v11.4c0,0.7,0.5,1.2,1.2,1.2h11.4c0.7,0,1.2-0.6,1.2-1.2V30.3
		C42.9,29.6,42.4,29.1,41.7,29.1"/>
	<path class="st0" d="M59.8,28.2c0.6,0,1.1-0.5,1.1-1.1l0,0v-1.8c0-0.6-0.5-1.1-1.1-1.1h-5.6V19c0-0.7-0.5-1.2-1.2-1.2h-5.2v-5.5
		c0-0.6-0.5-1.1-1.1-1.1h-1.8c-0.6,0-1.1,0.5-1.1,1.1v5.6h-5.9v-5.6c0-0.6-0.5-1.1-1.1-1.1l0,0H35c-0.6,0-1.1,0.5-1.1,1.1l0,0v5.6
		H28v-5.6c0-0.6-0.5-1.1-1.1-1.1l0,0h-1.8c-0.6,0-1.1,0.5-1.1,1.1l0,0v5.6h-5.2c-0.7,0-1.2,0.5-1.2,1.2v5.2h-5.5
		c-0.6,0-1.1,0.5-1.1,1.1l0,0v1.8c0,0.6,0.5,1.1,1.1,1.1l0,0h5.5V34h-5.5c-0.6,0-1.1,0.5-1.1,1.1l0,0v1.8c0,0.6,0.5,1.1,1.1,1.1l0,0
		h5.5v5.9h-5.5c-0.6,0-1.1,0.5-1.1,1.1v1.8c0,0.6,0.5,1.1,1.1,1.1h5.5V53c0,0.7,0.5,1.2,1.2,1.2H24v5.6c0,0.6,0.5,1.1,1.1,1.1h1.8
		c0.6,0,1.1-0.5,1.1-1.1v-5.6h5.9v5.6c0,0.6,0.5,1.1,1.1,1.1h1.9c0.6,0,1.1-0.5,1.1-1.1v-5.6h5.9v5.6c0,0.6,0.5,1.1,1.1,1.1h1.8
		c0.6,0,1.1-0.5,1.1-1.1v-5.6h5.2c0.7,0,1.2-0.6,1.2-1.2v-5.2h5.6c0.6,0,1.1-0.5,1.1-1.1l0,0v-1.8c0-0.6-0.5-1.1-1.1-1.1h-5.6V38
		h5.6c0.6,0,1.1-0.5,1.1-1.1l0,0v-1.8c0-0.6-0.4-1.1-1-1.1c0,0,0,0-0.1,0h-5.6v-5.8C54.3,28.2,59.8,28.2,59.8,28.2z M50.1,50.2H21.9
		V21.9h28.2V50.2z"/>
</g>
</svg>
