<?xml version="1.0" encoding="utf-8"?>
<!-- Generator: Adobe Illustrator 24.1.3, SVG Export Plug-In . SVG Version: 6.00 Build 0)  -->
<svg version="1.1" id="Capa_1" xmlns="http://www.w3.org/2000/svg" xmlns:xlink="http://www.w3.org/1999/xlink" x="0px" y="0px"
	 width="72px" height="72px" viewBox="0 0 72 72" style="enable-background:new 0 0 72 72;" xml:space="preserve">
<style type="text/css">
	.st0{fill:#4285F4;}
</style>
<path class="st0" d="M44.8,9.5v6.3h-5.7V9.5h-6.2v6.3h-5.7V9.5h-6.3v6.3c-2.7,0.2-4.9,2.3-5,5H9.6v6.3h6.3v5.7H9.6v6.3h6.3v5.7H9.6
	v6.3h6.3c0.2,2.7,2.3,4.9,5,5v6.3h6.3v-6.3h5.7v6.3h6.2v-6.3h5.7v6.3h6.3v-6.3c2.7-0.2,4.9-2.3,5-5h6.3v-6.3h-6.3v-5.7h6.3v-6.3
	h-6.3v-5.7h6.3v-6.3h-6.3c-0.2-2.7-2.3-4.9-5-5V9.5H44.8z M48.9,50H23.1c-0.5,0-1-0.4-1-1V23.1c0-0.5,0.4-1,1-1l0,0h25.8
	c0.5,0,1,0.4,1,1v25.8C49.9,49.5,49.4,50,48.9,50z"/>
<polygon class="st0" points="38.2,24.9 38.2,34.3 43.4,34.3 34.1,47.2 34.1,37.6 28.6,37.6 "/>
</svg>
