<?xml version="1.0" encoding="utf-8"?>
<!-- Generator: Adobe Illustrator 24.1.3, SVG Export Plug-In . SVG Version: 6.00 Build 0)  -->
<svg version="1.1" id="Capa_1" xmlns="http://www.w3.org/2000/svg" xmlns:xlink="http://www.w3.org/1999/xlink" x="0px" y="0px"
	 width="24px" height="24px" viewBox="0 0 24 24" style="enable-background:new 0 0 24 24;" xml:space="preserve">
<style type="text/css">
	.st0{fill-rule:evenodd;clip-rule:evenodd;fill:#34A853;}
</style>
<path id="hb0hubuv2a_2_" class="st0" d="M20.8,7.4c0.4-0.4,0.4-1,0-1.4L18,3.2c-0.4-0.4-1-0.4-1.4,0l-4.5,4.5L8.2,3.8
	C7.4,3,6.2,3,5.4,3.8L3.5,5.7c-0.8,0.8-0.8,2.1,0,2.8l3.9,3.9l-4.5,4.5v4.2h4.2l4.5-4.5l3.9,3.9c0.9,1,2.2,0.6,2.8,0l1.9-1.9
	c0.8-0.8,0.8-2.1,0-2.8l-3.9-3.9C16.4,11.9,20.8,7.4,20.8,7.4z M4.9,7.1l1.9-1.9l1.3,1.3L6.9,7.6L8.3,9l1.2-1.2l1.2,1.2L8.8,11
	C8.8,11,4.9,7.1,4.9,7.1z M16.1,14.5l-1.2,1.2l1.4,1.4l1.2-1.2l1.3,1.3l-1.9,1.9L13,15.2l1.9-1.9C14.9,13.3,16.1,14.5,16.1,14.5z
	 M6.3,19.1H4.9v-1.4l9.6-9.6l1.3,1.3l0.1,0.1L6.3,19.1z M15.9,6.7l1.4-1.4l1.4,1.4l-1.4,1.4L15.9,6.7z"/>
</svg>
