<svg xmlns="http://www.w3.org/2000/svg" xmlns:xlink="http://www.w3.org/1999/xlink" width="414" height="70" viewBox="0 0 414 70">
    <defs>
        <path id="y73th6fz8a" d="M0.601 0.203L64.402 0.203 64.402 64.004 0.601 64.004z"/>
        <path id="q62zsvjt9c" d="M0 0.26L39.865 0.26 39.865 41.22 0 41.22z"/>
    </defs>
    <g fill="none" fill-rule="evenodd">
        <g>
            <g>
                <g transform="translate(-513 -365) translate(513 365) translate(1.82 .256)">
                    <mask id="vjizfhi4cb" fill="#fff">
                        <use xlink:href="#y73th6fz8a"/>
                    </mask>
                    <g mask="url(#vjizfhi4cb)">
                        <g>
                            <path fill="#EA4335" d="M39.493 13.68l1.958.034 5.321-5.321.257-2.255C42.802 2.377 37.238.088 31.148.088 20.12.088 10.817 7.589 8.062 17.75c.58-.405 1.823-.1 1.823-.1L20.52 15.9s.547-.905.824-.85c2.43-2.66 5.928-4.335 9.81-4.335 3.154.006 6.057 1.12 8.34 2.964z" transform="translate(1.35 6.752)"/>
                            <path fill="#4285F4" d="M54.247 17.772c-1.236-4.558-3.782-8.582-7.218-11.634l-7.536 7.535c3.018 2.438 4.956 6.165 4.956 10.338v1.33c3.667 0 6.644 2.984 6.644 6.644 0 3.666-2.984 6.644-6.644 6.644H31.161l-1.33 1.337v7.974l1.33 1.324H44.45c9.528 0 17.279-7.752 17.279-17.28-.007-5.88-2.97-11.093-7.481-14.212z" transform="translate(1.35 6.752)"/>
                            <path fill="#34A853" d="M17.86 49.27h13.28V38.636H17.86c-.98 0-1.905-.216-2.735-.594l-1.918.587-5.32 5.32-.466 1.797c2.903 2.208 6.522 3.524 10.438 3.524z" transform="translate(1.35 6.752)"/>
                            <path fill="#FBBC05" d="M17.86 14.713C8.331 14.713.58 22.464.58 31.992c0 5.61 2.688 10.6 6.847 13.76l7.705-7.704c-2.31-1.046-3.917-3.362-3.917-6.056 0-3.667 2.985-6.644 6.644-6.644 2.695 0 5.01 1.613 6.057 3.916l7.704-7.704c-3.16-4.16-8.15-6.847-13.76-6.847z" transform="translate(1.35 6.752)"/>
                        </g>
                    </g>
                </g>
                <g transform="translate(-513 -365) translate(513 365) translate(90 10.025)">
                    <mask id="edr1npp6wd" fill="#fff">
                        <use xlink:href="#q62zsvjt9c"/>
                    </mask>
                    <path fill="#5F6368" d="M10.185 38.537c-3.14-1.789-5.622-4.244-7.447-7.365C.912 28.05 0 24.573 0 20.74s.912-7.31 2.738-10.432c1.825-3.12 4.307-5.576 7.447-7.365C13.325 1.155 16.756.26 20.48.26c2.957 0 5.713.53 8.269 1.588 2.554 1.06 4.69 2.538 6.406 4.436l-4.27 4.27c-1.28-1.423-2.794-2.518-4.546-3.285-1.752-.766-3.705-1.15-5.86-1.15-2.555 0-4.927.603-7.118 1.807-2.19 1.205-3.934 2.922-5.23 5.148-1.296 2.227-1.943 4.783-1.943 7.666 0 2.884.657 5.44 1.971 7.666 1.314 2.228 3.067 3.943 5.257 5.148 2.19 1.205 4.563 1.807 7.119 1.807 2.3 0 4.234-.347 5.804-1.04 1.57-.694 2.975-1.625 4.217-2.793.802-.767 1.487-1.761 2.053-2.985.566-1.222.958-2.546 1.177-3.97h-13.36v-5.476h19.11c.22 1.242.329 2.3.329 3.176 0 2.483-.393 4.865-1.178 7.146-.785 2.282-1.998 4.263-3.641 5.942-3.724 3.907-8.58 5.86-14.566 5.86-3.724 0-7.156-.895-10.295-2.684" mask="url(#edr1npp6wd)"/>
                </g>
                <path fill="#5F6368" d="M150.557 44.62c1.241-.73 2.246-1.771 3.012-3.122.767-1.35 1.15-2.92 1.15-4.71 0-1.824-.383-3.412-1.15-4.763-.766-1.35-1.77-2.382-3.012-3.094-1.241-.712-2.592-1.068-4.052-1.068-1.424 0-2.765.356-4.025 1.068-1.259.712-2.264 1.743-3.011 3.094-.749 1.35-1.123 2.939-1.123 4.764 0 1.789.383 3.359 1.15 4.71.767 1.35 1.77 2.39 3.012 3.12 1.24.731 2.573 1.095 3.997 1.095 1.46 0 2.81-.364 4.052-1.095m-11.335 4.737c-2.154-1.26-3.842-2.984-5.065-5.175-1.224-2.19-1.834-4.654-1.834-7.392 0-2.738.61-5.202 1.834-7.393 1.223-2.19 2.91-3.915 5.065-5.175 2.154-1.26 4.581-1.889 7.283-1.889 2.738 0 5.184.63 7.338 1.89 2.154 1.259 3.833 2.984 5.038 5.174 1.205 2.19 1.807 4.655 1.807 7.393 0 2.738-.602 5.202-1.807 7.392-1.205 2.19-2.884 3.915-5.038 5.175-2.154 1.26-4.6 1.89-7.338 1.89-2.702 0-5.13-.63-7.283-1.89M180.631 44.62c1.24-.73 2.245-1.771 3.012-3.122.767-1.35 1.15-2.92 1.15-4.71 0-1.824-.383-3.412-1.15-4.763-.767-1.35-1.771-2.382-3.012-3.094-1.241-.712-2.592-1.068-4.052-1.068-1.424 0-2.765.356-4.025 1.068-1.26.712-2.264 1.743-3.012 3.094-.748 1.35-1.122 2.939-1.122 4.764 0 1.789.383 3.359 1.15 4.71.766 1.35 1.77 2.39 3.012 3.12 1.24.731 2.573 1.095 3.997 1.095 1.46 0 2.81-.364 4.052-1.095m-11.335 4.737c-2.154-1.26-3.843-2.984-5.065-5.175-1.224-2.19-1.835-4.654-1.835-7.392 0-2.738.611-5.202 1.835-7.393 1.222-2.19 2.91-3.915 5.065-5.175 2.154-1.26 4.581-1.889 7.283-1.889 2.738 0 5.183.63 7.338 1.89 2.153 1.259 3.833 2.984 5.038 5.174 1.204 2.19 1.807 4.655 1.807 7.393 0 2.738-.603 5.202-1.807 7.392-1.205 2.19-2.885 3.915-5.038 5.175-2.155 1.26-4.6 1.89-7.338 1.89-2.702 0-5.13-.63-7.283-1.89M210.519 44.707c1.205-.709 2.171-1.744 2.902-3.106.73-1.361 1.095-2.957 1.095-4.784 0-1.865-.365-3.478-1.095-4.84-.73-1.361-1.697-2.397-2.902-3.105-1.205-.709-2.52-1.064-3.943-1.064-1.424 0-2.738.364-3.943 1.091-1.204.728-2.172 1.772-2.902 3.134-.73 1.362-1.095 2.957-1.095 4.784s.365 3.423 1.095 4.784c.73 1.362 1.698 2.397 2.902 3.106 1.205.708 2.52 1.062 3.943 1.062 1.424 0 2.738-.354 3.943-1.062M198.006 60.69c-2.209-1.588-3.696-3.441-4.463-5.558l5.695-2.354c.548 1.496 1.46 2.683 2.738 3.559 1.278.876 2.756 1.314 4.436 1.314 2.519 0 4.499-.724 5.941-2.17 1.442-1.448 2.163-3.48 2.163-6.099V47.03h-.328c-.876 1.278-2.073 2.3-3.587 3.066-1.515.767-3.24 1.15-5.175 1.15-2.264 0-4.372-.61-6.324-1.83-1.954-1.222-3.524-2.933-4.71-5.134-1.187-2.201-1.78-4.69-1.78-7.465 0-2.774.593-5.262 1.78-7.464 1.186-2.2 2.756-3.92 4.71-5.16 1.952-1.24 4.06-1.86 6.324-1.86 1.935 0 3.66.384 5.175 1.15 1.514.767 2.71 1.79 3.587 3.067h.328v-3.34h5.75v25.627c0 2.993-.594 5.566-1.78 7.721-1.186 2.154-2.83 3.778-4.928 4.874-2.1 1.095-4.482 1.642-7.146 1.642-3.395 0-6.197-.794-8.406-2.382M225.068 50.369L231.092 50.369 231.092 11.161 225.068 11.161zM255.405 33.448c-.074-.876-.366-1.77-.876-2.683-.512-.912-1.306-1.688-2.383-2.327-1.077-.638-2.418-.958-4.024-.958-1.79 0-3.332.547-4.627 1.642-1.297 1.096-2.182 2.538-2.656 4.326h14.566zm-14.1 15.935c-2.136-1.24-3.807-2.965-5.011-5.174-1.205-2.209-1.807-4.682-1.807-7.42 0-2.629.575-5.046 1.725-7.256 1.15-2.208 2.765-3.96 4.846-5.257 2.08-1.295 4.453-1.944 7.118-1.944 2.738 0 5.12.603 7.147 1.807 2.026 1.205 3.567 2.875 4.627 5.01 1.058 2.136 1.588 4.592 1.588 7.366 0 .328-.02.657-.055.986-.037.328-.055.511-.055.547H240.51c.182 2.483 1.076 4.4 2.683 5.75 1.606 1.35 3.431 2.026 5.476 2.026 3.14 0 5.549-1.46 7.228-4.38l5.148 2.463c-1.205 2.228-2.875 4.007-5.01 5.34-2.136 1.332-4.647 1.998-7.53 1.998-2.665 0-5.065-.621-7.2-1.862zM285.166 48.562c-3.121-1.788-5.577-4.244-7.365-7.365-1.79-3.121-2.683-6.599-2.683-10.432s.894-7.31 2.683-10.431c1.788-3.122 4.244-5.576 7.365-7.366 3.121-1.788 6.58-2.683 10.377-2.683 5.877 0 10.714 2.136 14.511 6.407l-4.326 4.217c-1.35-1.606-2.857-2.802-4.518-3.587-1.661-.785-3.55-1.178-5.667-1.178-2.629 0-5.03.603-7.201 1.808-2.172 1.204-3.888 2.911-5.147 5.12-1.26 2.209-1.89 4.773-1.89 7.693 0 2.921.63 5.486 1.89 7.694 1.26 2.21 2.975 3.915 5.147 5.12s4.572 1.807 7.2 1.807c4.382 0 8.105-1.825 11.172-5.476l4.435 4.271c-1.862 2.227-4.134 3.962-6.817 5.202-2.683 1.24-5.613 1.862-8.79 1.862-3.796 0-7.255-.894-10.376-2.683M313.942 50.369L319.965 50.369 319.965 11.161 313.942 11.161zM341.595 44.62c1.24-.73 2.245-1.771 3.012-3.122.766-1.35 1.15-2.92 1.15-4.71 0-1.824-.384-3.412-1.15-4.763-.767-1.35-1.772-2.382-3.012-3.094-1.242-.712-2.593-1.068-4.052-1.068-1.424 0-2.766.356-4.025 1.068-1.26.712-2.264 1.743-3.012 3.094-.749 1.35-1.123 2.939-1.123 4.764 0 1.789.384 3.359 1.15 4.71.767 1.35 1.77 2.39 3.012 3.12 1.24.731 2.574 1.095 3.998 1.095 1.46 0 2.81-.364 4.052-1.095m-11.335 4.737c-2.155-1.26-3.843-2.984-5.066-5.175-1.223-2.19-1.834-4.654-1.834-7.392 0-2.738.61-5.202 1.834-7.393 1.223-2.19 2.911-3.915 5.066-5.175 2.153-1.26 4.58-1.889 7.283-1.889 2.738 0 5.183.63 7.337 1.89 2.154 1.259 3.833 2.984 5.038 5.174 1.205 2.19 1.807 4.655 1.807 7.393 0 2.738-.602 5.202-1.807 7.392-1.205 2.19-2.884 3.915-5.038 5.175-2.154 1.26-4.6 1.89-7.337 1.89-2.702 0-5.13-.63-7.283-1.89M357.387 48.26c-1.734-1.989-2.6-4.736-2.6-8.24V23.208h6.023v15.99c0 4.345 1.952 6.516 5.859 6.516 2.044 0 3.696-.793 4.956-2.381 1.26-1.589 1.889-3.496 1.889-5.723V23.208h6.023V50.37h-5.75v-3.614h-.273c-.803 1.314-1.98 2.391-3.532 3.23-1.552.84-3.203 1.26-4.956 1.26-3.359 0-5.905-.994-7.639-2.984M400.942 44.62c1.223-.73 2.2-1.771 2.93-3.122.73-1.35 1.095-2.92 1.095-4.71 0-1.788-.365-3.357-1.095-4.709-.73-1.35-1.707-2.39-2.93-3.12s-2.546-1.096-3.97-1.096c-1.423 0-2.747.365-3.97 1.095-1.223.73-2.209 1.78-2.957 3.149-.748 1.369-1.122 2.93-1.122 4.682 0 1.752.374 3.313 1.122 4.682.748 1.369 1.734 2.418 2.957 3.148 1.223.731 2.547 1.095 3.97 1.095 1.424 0 2.747-.364 3.97-1.095m-11.554 4.764c-1.99-1.24-3.569-2.965-4.736-5.174-1.17-2.209-1.753-4.682-1.753-7.42 0-2.738.584-5.211 1.753-7.42 1.167-2.209 2.746-3.933 4.736-5.175 1.99-1.24 4.153-1.862 6.49-1.862 1.97 0 3.731.42 5.284 1.26 1.55.84 2.728 1.88 3.532 3.121h.273l-.273-3.778V11.16h6.023V50.37h-5.75v-3.56h-.273c-.804 1.279-1.972 2.337-3.505 3.177-1.533.839-3.304 1.26-5.312 1.26-2.336 0-4.5-.622-6.489-1.863" transform="translate(-513 -365) translate(513 365)"/>
            </g>
        </g>
    </g>
</svg>
