<svg xmlns="http://www.w3.org/2000/svg" width="175" height="36" viewBox="0 0 175 36">
    <defs>
        <linearGradient id="y2pq20nzya" x1="0%" x2="100%" y1="50%" y2="50%">
            <stop offset="0%" stop-color="#5BC2BD"/>
            <stop offset="100%" stop-color="#13ABA1"/>
        </linearGradient>
        <linearGradient id="7qfa3xx8ab" x1="0%" x2="100%" y1="50%" y2="50%">
            <stop offset="0%" stop-color="#3DBAEB"/>
            <stop offset="100%" stop-color="#0880C3"/>
        </linearGradient>
    </defs>
    <g fill="none" fill-rule="evenodd">
        <g fill-rule="nonzero">
            <g>
                <path fill="url(#y2pq20nzya)" d="M6.999 13.141L9.553 12.308 9.171 3.669 23.425 7.984 25.196 19.572 10.037 23.974 9.74 16.515 7.176 17.355 7.647 27.358 18.403 24.202 20.911 23.469 28.09 21.42 25.775 6.009 6.433 0.077z" transform="translate(-389 -249) translate(389.5 249)"/>
                <path fill="url(#7qfa3xx8ab)" d="M9.404 12.278L6.896 13.11 2.331 14.619 0.001 30.021 21.619 35.895 21.089 23.413 18.582 24.146 18.94 32.478 2.9 28.141 4.68 16.57 18.042 12.19 18.369 19.925 20.924 19.191 20.465 8.685z" transform="translate(-389 -249) translate(389.5 249)"/>
                <path fill="#333" d="M46.206 17.677c-.426-2.082-2.461-3.425-4.543-2.998-2.084.427-3.426 2.462-2.999 4.545.154.749.527 1.435 1.072 1.971 1.501 1.501 3.935 1.502 5.437.001.532-.52.896-1.183 1.05-1.91v-1.63l-.017.021zm0 3.562c-.142.189-.294.37-.456.543-1.816 1.82-4.763 1.823-6.582.008-.87-.867-1.361-2.042-1.368-3.27-.033-2.574 2.026-4.686 4.6-4.72 1.265-.016 2.481.483 3.371 1.381.173.171.335.353.484.544v-1.153h.762v6.476c.019 1.206-.464 2.367-1.333 3.203-1.816 1.819-4.763 1.82-6.581.003l-.003-.003c-.182-.182-.35-.378-.5-.587l.804-.289c.084.102.174.202.272.3 1.512 1.49 3.947 1.471 5.436-.04.636-.646 1.023-1.494 1.094-2.396zM55.56 15.363c-1.701-1.27-4.11-.92-5.38.78-.496.664-.764 1.47-.764 2.298-.009.835.267 1.648.783 2.305l5.36-5.383zm-4.867 5.943c.695.647 1.613 1 2.561.984 1.023.017 2.007-.39 2.719-1.125.098-.098.189-.195.272-.294l.805.288c-.152.21-.319.405-.5.588-1.816 1.82-4.763 1.823-6.583.008-.877-.875-1.37-2.064-1.367-3.303.008-2.577 2.103-4.66 4.679-4.652 1.038.003 2.045.352 2.863.992.134.113.27.238.407.376l.147.152-.576.576-5.427 5.41zM60.736 15.742c-1.502 1.496-1.506 3.927-.009 5.428l.009.009c1.505 1.501 3.942 1.498 5.444-.007.718-.72 1.122-1.694 1.124-2.712-.004-2.126-1.73-3.846-3.857-3.842-1.017.001-1.991.405-2.711 1.124m2.718-1.942c2.568-.003 4.652 2.076 4.655 4.644v.016c.001 2.571-2.081 4.656-4.651 4.658-2.571.001-4.656-2.081-4.658-4.652-.001-1.238.492-2.426 1.37-3.3.86-.89 2.048-1.383 3.284-1.366M82.347 22.666V17.56c0-1.44-.479-2.751-2.175-2.751-1.789 0-2.175 1.23-2.175 2.718v5.123h-1.724v-5.09c.067-.655-.065-1.314-.38-1.892-.373-.573-1.025-.901-1.707-.86-1.773 0-2.273 1.191-2.273 2.72v5.122H70.2v-9.168h1.593v.995h.033c.598-.842 1.584-1.32 2.615-1.267 1.088 0 2.37.517 2.85 1.539.642-1.041 1.814-1.635 3.033-1.539 2.436 0 3.747 1.523 3.747 3.894v5.562h-1.724zM90.696 14.823c-1.802-.045-3.298 1.379-3.343 3.18-.045 1.801 1.378 3.298 3.18 3.343 1.8.045 3.297-1.38 3.342-3.18l.001-.08c.064-1.738-1.294-3.198-3.031-3.261-.05-.002-.1-.002-.15-.002zm3.148 7.857v-1.425h-.033c-.671 1.062-1.86 1.684-3.115 1.632-2.605.096-4.795-1.937-4.891-4.542-.003-.083-.004-.166-.003-.249-.076-2.626 1.991-4.817 4.618-4.893.092-.003.184-.003.276 0 1.232-.049 2.405.531 3.115 1.539h.033v-1.246h1.723v9.184h-1.723zM103.28 15.028c-.386-.158-.797-.243-1.213-.25-1.802 0-3.262 1.46-3.262 3.262s1.46 3.263 3.262 3.263c1.285.017 2.447-.762 2.92-1.958.188-.4.29-.836.298-1.278.07-1.34-.748-2.566-2.012-3.018l.006-.021zm-1.262 11.222c-1.96.054-3.753-1.095-4.524-2.898h1.941c.585.867 1.577 1.369 2.621 1.327 2.088 0 3.235-1.142 3.235-3.262h-.032c-.762.962-1.94 1.498-3.165 1.44-2.676-.028-4.844-2.18-4.894-4.855.005-.714.175-1.418.495-2.055.798-1.704 2.523-2.78 4.405-2.746 1.19-.014 2.333.46 3.164 1.31v-1.087h1.723v7.987c0 3.105-1.925 4.84-4.969 4.84zM109.2 23.067h1.724v-9.184H109.2v9.184zm0-10.244h1.724V10.8H109.2v2.023zM117.511 22.912c-2.585.017-4.695-2.066-4.711-4.651 0-.063 0-.125.003-.188-.082-2.608 1.966-4.79 4.574-4.87 2.134-.068 4.048 1.305 4.67 3.348h-1.926c-.417-1.07-1.462-1.762-2.61-1.73-1.892 0-3.017 1.441-3.017 3.263 0 1.821 1.142 3.262 2.985 3.262 1.132.023 2.164-.647 2.604-1.69h1.925c-.634 1.945-2.45 3.26-4.497 3.256M127.896 14.823c-1.802-.045-3.298 1.379-3.343 3.18-.045 1.801 1.378 3.298 3.179 3.343 1.802.045 3.298-1.38 3.343-3.18l.001-.08c.064-1.738-1.294-3.198-3.032-3.261-.049-.002-.099-.002-.148-.002zm3.148 7.857v-1.425h-.033c-.672 1.062-1.86 1.684-3.115 1.632-2.605.096-4.795-1.937-4.891-4.542-.003-.083-.005-.166-.003-.249-.077-2.626 1.991-4.817 4.617-4.893.092-.003.184-.003.277 0 1.232-.049 2.405.531 3.115 1.539h.033v-1.246h1.723v9.184h-1.723zM135 23.067L136.724 23.067 136.724 10.8 135 10.8zM142.2 22.56L142.961 22.56 142.961 9 142.2 9zM153.633 19.218v-1.512c-.43-2.082-2.468-3.42-4.55-2.99-2.082.432-3.42 2.469-2.99 4.55.15.72.502 1.383 1.016 1.91 1.502 1.512 3.946 1.522 5.46.02.542-.54.914-1.228 1.064-1.978zm.761 3.658h-.76V21.18c-.15.192-.312.374-.485.544-1.815 1.82-4.762 1.823-6.582.008-.869-.867-1.36-2.042-1.367-3.27-.004-2.57 2.077-4.658 4.647-4.662 1.238-.002 2.427.49 3.302 1.367.173.17.335.352.484.544v-1.153h.761v8.318zM157.96 17.346v1.594c.443 2.08 2.487 3.406 4.566 2.965 2.08-.443 3.408-2.487 2.966-4.566-.155-.726-.516-1.392-1.04-1.918-1.51-1.5-3.95-1.492-5.45.019-.522.525-.88 1.189-1.035 1.912l-.006-.006zM157.2 9h.76v6.41c.148-.192.31-.374.485-.543 1.815-1.817 4.758-1.819 6.574-.005.876.875 1.367 2.062 1.364 3.3-.012 2.568-2.104 4.638-4.671 4.627-1.226-.007-2.4-.497-3.267-1.365-.175-.169-.337-.35-.484-.543v1.686h-.761V9zM171.21 18.713c-.487-.239-.94-.54-1.348-.898-.383-.368-.595-.878-.588-1.408-.007-.534.205-1.047.588-1.419.367-.382.878-.595 1.408-.587.512-.015 1.008.181 1.37.544.34.312.536.75.544 1.212v.044l-.664.26c-.024-.358-.166-.698-.402-.967-.222-.22-.526-.336-.837-.321-.682-.003-1.237.547-1.24 1.229-.001.33.13.647.365.88.283.243.589.457.913.642.551.282 1.063.635 1.522 1.05.965.963.967 2.527.003 3.493-.964.965-2.529.967-3.494.003-.457-.404-.729-.978-.75-1.588l.756-.196c-.012.468.171.919.506 1.245.666.675 1.753.68 2.427.014.674-.667.68-1.753.014-2.428-.338-.301-.704-.57-1.093-.804" transform="translate(-389 -249) translate(389.5 249)"/>
            </g>
        </g>
    </g>
</svg>
